<mxfile host="www.draw.io" modified="2019-11-19T07:33:09.628Z" agent="Mozilla/5.0 (X11; Linux x86_64) AppleWebKit/537.36 (KHTML, like Gecko) Chrome/78.0.3904.87 Safari/537.36" etag="frBQI2hP5p_XW1iaCgkY" version="12.2.6" type="github" pages="1">
  <diagram id="ylydd8n9f6ZL4neCqSHD" name="Page-1">
    <mxGraphModel dx="1408" dy="760" grid="1" gridSize="10" guides="1" tooltips="1" connect="1" arrows="1" fold="1" page="1" pageScale="1" pageWidth="850" pageHeight="1100" math="0" shadow="0">
      <root>
        <mxCell id="0"/>
        <mxCell id="1" parent="0"/>
        <mxCell id="zTHkgZeOIcgACcdfb5g5-6" value="" style="endArrow=none;dashed=1;html=1;" edge="1" parent="1">
          <mxGeometry width="50" height="50" relative="1" as="geometry">
            <mxPoint x="220" y="570" as="sourcePoint"/>
            <mxPoint x="650" y="570" as="targetPoint"/>
          </mxGeometry>
        </mxCell>
      </root>
    </mxGraphModel>
  </diagram>
</mxfile>
